# xmcd CD database file
#
# Track frame offsets:
#	150
#	36792
#	85227
#	115242
#	153230
#	194520
#	203252
#	212980
#	222967
#
# Disc length: 3151 seconds
#
# Revision: 2
# Processed by: cddbd v1.5.2PL0 Copyright (c) Steve Scherf et al.
# Submitted via: CDex 1.51
#
DISCID=790c4d09
DTITLE=Johnny Winter - Live At The Texas Opry House
DYEAR=1978
DGENRE=Blues Rock
TTITLE0=Somthin' Goin' On Wrong
TTITLE1=Come On In My Kitchen
TTITLE2=Brown Eyed Handsome Man
TTITLE3=In The Wee Wee Hours
TTITLE4=Wipeout
TTITLE5=Hideaway
TTITLE6=Diving Duck Blues
TTITLE7=Mississippi Blue
TTITLE8=Last Night
EXTD=YEAR: 1978
EXTT0=
EXTT1=
EXTT2=
EXTT3=
EXTT4=
EXTT5=
EXTT6=
EXTT7=
EXTT8=
PLAYORDER=
